<svg xmlns="http://www.w3.org/2000/svg" xmlns:xlink="http://www.w3.org/1999/xlink" viewBox="0 0 180 26"><g><path d="M 0 0 L 180 0 L 180 26 L 0 26 Z" fill="transparent"></path><path d="M 0 23.998 L 22.79 17.328 L 45.574 23.998 L 22.79 10.666 Z" fill="rgb(26,184,209)"></path><path d="M 0 26 L 22.79 25.904 L 45.575 26 L 22.79 20.948 Z" fill="rgb(26,184,209)"></path><path d="M 22.834 0.044 L 22.784 0 L 0 22.166 L 22.783 6.116 L 45.573 22.166 Z" fill="rgb(232,138,0)"></path><path d="M 169.698 16.154 L 172.889 16.154 C 173.358 16.154 173.828 16.117 174.297 16.044 C 174.731 15.981 175.152 15.843 175.539 15.637 C 175.9 15.437 176.196 15.157 176.412 14.787 C 176.629 14.418 176.737 13.938 176.737 13.347 C 176.737 12.757 176.629 12.277 176.412 11.907 C 176.204 11.549 175.902 11.255 175.539 11.057 C 175.151 10.851 174.731 10.714 174.297 10.651 C 173.831 10.577 173.361 10.54 172.889 10.541 L 169.698 10.541 Z M 167.266 8.472 L 173.568 8.472 C 174.716 8.472 175.661 8.627 176.405 8.93 C 177.148 9.233 177.733 9.617 178.166 10.09 C 178.599 10.555 178.895 11.087 179.069 11.663 C 179.231 12.21 179.315 12.777 179.321 13.347 C 179.321 14.464 178.901 15.539 178.145 16.361 C 177.746 16.792 177.274 17.15 176.751 17.417 C 176.18 17.711 175.558 17.892 174.918 17.949 L 180.007 25.904 L 176.968 25.904 L 172.413 18.222 L 169.706 18.222 L 169.706 25.904 L 167.273 25.904 L 167.273 8.472 Z M 62.344 19.67 L 69.657 19.67 L 66.004 11.353 Z M 72.458 26 L 70.545 21.686 L 61.47 21.686 L 59.557 26 L 56.907 26 L 64.9 8.539 L 67.095 8.539 L 75.115 25.999 L 72.458 25.999 Z M 84.117 23.887 C 88.534 23.887 90.744 21.672 90.744 17.24 C 90.744 12.808 88.534 10.644 84.117 10.644 L 80.587 10.644 L 80.587 23.887 Z M 77.987 8.54 L 84.268 8.54 C 87.178 8.54 89.43 9.3 91.025 10.822 C 92.621 12.344 93.422 14.486 93.422 17.248 C 93.422 20.011 92.621 22.182 91.025 23.711 C 89.43 25.24 87.177 26 84.268 26 L 77.988 26 L 77.988 8.539 Z M 103.131 26 L 103.131 8.539 L 105.73 8.539 L 105.73 23.887 L 114.458 23.887 L 114.458 26 Z M 122.096 19.67 L 129.409 19.67 L 125.756 11.353 Z M 132.21 26 L 130.297 21.686 L 121.222 21.686 L 119.309 26 L 116.66 26 L 124.651 8.539 L 126.846 8.539 L 134.866 25.999 L 132.21 25.999 Z M 148.727 8.539 L 141.573 18.99 L 141.573 26 L 138.945 26 L 138.945 18.939 L 131.813 8.539 L 134.787 8.539 L 140.281 16.782 L 145.753 8.539 Z M 151.29 26 L 151.29 8.539 L 162.934 8.539 L 162.934 10.599 L 153.86 10.599 L 153.86 16.095 L 162.429 16.095 L 162.429 18.155 L 153.86 18.155 L 153.86 23.939 L 162.934 23.939 L 162.934 26 Z" fill="rgb(26,184,209)"></path></g></svg>