<?xml version="1.0" encoding="UTF-8"?>
<svg id="Layer_1" xmlns="http://www.w3.org/2000/svg" xmlns:serif="http://www.serif.com/" version="1.1" viewBox="0 0 500 500">
  <!-- Generator: Adobe Illustrator 29.5.1, SVG Export Plug-In . SVG Version: 2.1.0 Build 141)  -->
  <defs>
    <style>
      .st0 {
        fill: #fff;
      }

      .st1 {
        fill: #ea7600;
      }

      .st2 {
        fill: #265787;
      }
    </style>
  </defs>
  <g id="blender_logo_no_socket">
    <g>
      <path class="st0" d="M197.64,271.93c1.79-31.86,17.39-59.93,40.93-79.83,23.08-19.54,54.15-31.49,88.05-31.49s64.93,11.95,88.03,31.49c23.52,19.9,39.12,47.97,40.93,79.79,1.79,32.74-11.37,63.15-34.46,85.69-23.54,22.93-57.02,37.32-94.5,37.32s-71.03-14.39-94.55-37.32c-23.1-22.54-36.22-52.95-34.42-85.66Z"/>
      <path class="st2" d="M260.44,274.79c.92-16.35,8.92-30.75,21-40.96,11.84-10.03,27.79-16.16,45.18-16.16s33.32,6.13,45.17,16.16c12.07,10.21,20.07,24.61,21,40.94.92,16.8-5.84,32.4-17.68,43.97-12.08,11.77-29.26,19.15-48.49,19.15s-36.45-7.38-48.52-19.15c-11.85-11.57-18.59-27.17-17.66-43.95Z"/>
      <path class="st1" d="M155.06,307.82c.11,6.4,2.15,18.83,5.21,28.54,6.43,20.55,17.34,39.56,32.52,56.31,15.58,17.22,34.76,31.05,56.92,40.87,23.29,10.31,48.53,15.57,74.74,15.53,26.17-.03,51.4-5.39,74.69-15.79,22.16-9.92,41.32-23.81,56.88-41.04,15.17-16.82,26.07-35.87,32.51-56.42,3.24-10.38,5.29-20.92,6.11-31.49.8-10.42.47-20.85-1.01-31.28-2.89-20.32-9.92-39.38-20.74-56.76-9.9-15.97-22.66-29.95-37.83-41.71l.03-.03-153.11-117.56c-.14-.1-.25-.22-.4-.31-10.05-7.71-26.94-7.69-37.99.04-11.17,7.82-12.45,20.74-2.51,28.89l-.04.04,63.86,51.93-194.64.21h-.26c-16.09.02-31.55,10.57-34.62,23.91-3.15,13.59,7.78,24.86,24.51,24.92l-.03.06,98.66-.19L22.48,321.65c-.22.16-.47.34-.67.5-16.61,12.72-21.98,33.86-11.52,47.25,10.62,13.61,33.19,13.63,49.97.08l96.08-78.64s-1.4,10.62-1.29,16.99ZM401.95,343.37c-19.8,20.17-47.51,31.61-77.5,31.67-30.03.05-57.75-11.28-77.55-31.42-9.67-9.81-16.78-21.1-21.16-33.13-4.3-11.82-5.97-24.36-4.86-37.02,1.05-12.37,4.73-24.17,10.61-34.85,5.77-10.5,13.73-19.98,23.55-28,19.24-15.68,43.74-24.17,69.37-24.21,25.65-.03,50.13,8.38,69.39,24.01,9.8,7.99,17.75,17.44,23.52,27.92,5.9,10.67,9.56,22.43,10.65,34.83,1.09,12.64-.58,25.17-4.88,36.99-4.39,12.06-11.47,23.35-21.15,33.21Z"/>
    </g>
  </g>
</svg>