<?xml version="1.0" encoding="UTF-8"?>
<svg id="Layer_1" xmlns="http://www.w3.org/2000/svg" version="1.1" viewBox="0 0 796.16 367.33">
  <!-- Generator: Adobe Illustrator 29.5.1, SVG Export Plug-In . SVG Version: 2.1.0 Build 141)  -->
  <defs>
    <style>
      .st0 {
        fill: #231f20;
      }
    </style>
  </defs>
  <path class="st0" d="M725.81,212.07s-6.5-9.11-8.54-11.68c-1.36-1.71-3.07-3.74-7.55-.74-9.89,6.61-20.97,12.66-34.7,12.66-10.49,0-19.63-2.68-26.43-8.48,2.87-1.28,5.88-2.74,8.9-4.38,16.15-8.75,29.72-19.87,36.22-26.37,31.51-31.51,21.66-78.49-16.77-78.49-36.26,0-64.92,35.33-64.92,74.6,0,5.89.7,14.38,3.22,23.34-2.14,1.03-16.51,8.01-33.72,17.48-16.19-12.15-41.42-6.66-41.42-6.66,0,0,0,0,0-.01,23.43-33.29,58.72-85.25,61.72-89.51,2.16-3.07,1.82-6.13-.25-10.94-2.66-5.8-5.35-6.84-8.96-6.84h-73.25c-2.44,0-4.31,1.11-4.97,3.8-.66,2.69-2.2,11.95-2.5,15.14-.3,3.19,2.66,5.15,5.76,5.15h53.1l-48,68.74c-.32.27-.63.61-.92,1.03-6.98,10.06-17.66,24.16-30.54,24.16-8.02,0-17.87-5.71-17.87-24.4s7.38-57.05,12.81-87.2c.58-3.23-.52-6.43-5.71-6.43h-12.99c-2.99,0-4.7,1.85-5.13,4.37-.79,4.63-1.56,9.14-2.31,13.53-6.4-12.28-16.68-19.25-31.55-19.25-13.77,0-27.22,5.13-38.17,16.08-27.44,27.44-22.19,72.1-45.89,95.8-10.22,10.22-21.75,7.08-21.75-12.99,0-22.92,8.76-48.48,18.83-72.69,1.78-4.29-.13-7.89-2.03-10.64-2.7-3.92-3.7-5.95-8.5-5.95-7.51,0-19.4,4.72-43.33,4.72-5.07,0-9.92-.22-14.27-.55.25-3.56.34-5.98.39-6.91.16-3.36-1.03-5.5-4.63-5.5h-12.24c-4.39,0-5.55,2.1-6.03,5.55-2.05,14.64-6.04,68.27-32.97,95.2-3.12,3.12-4.97,4.08-4.97,4.08,6.7-13.13,10.34-30.34,10.34-44,0-38.37-22.74-62.21-51.26-62.21-8.69,0-17.94,2.78-26.55,8.2,4.01-23.38,7.74-45.28,9.03-52.7,1.09-6.26-1.14-9.51-2.81-12.09-2.73-4.22-5.1-6.08-8.75-6.08h-42.18c-2.44,0-4.2,1.7-4.83,4.38-.73,3.12-2.22,11.31-2.41,15.09-.16,3.29,2.12,4.57,4.8,4.57h30.78c-4.92,30.19-14.3,88.72-17.12,103.4-3.59,18.68-16.88,41.64-39.32,49.79-2.77,1.01-3.93,3.59-2.91,6.57,1.02,2.98,4.87,10.76,6.07,12.82,1.2,2.06,3.79,3.45,6.22,2.59,11.61-4.12,22.29-10.71,30.72-19.13,2.07-2.07,4.09-4.39,6.01-6.92,10.05,22.64,30.55,30.84,51.54,30.84,23.71,0,49.3-8.27,67.27-26.24,20.95-20.95,29.75-55.63,33.47-80.17,5.21.72,11.09,1.28,16.79,1.28,14.41,0,26.51-3.09,26.51-3.09,0,0-14.54,38.56-14.54,67.05,0,32.11,15.35,41.17,32.34,41.17s29.77-13.13,38.52-29.37c2.28,5.06,5.67,11.1,10.28,15.71,7.94,7.94,17.73,13.65,31.93,13.65,16.16,0,30.09-9.34,39.96-23.71,1.78,6.05,4.49,11.08,8.2,14.79,4.98,4.98,14.18,8.93,25.64,8.93,19.73,0,31.16-14.83,61.94-14.83,3.92,0,7.43.6,10.56,1.7-14.09,8.59-27.51,17.82-35.69,25.99-25.34,25.34-26.53,58.68-9.89,75.32,20.16,20.16,48.85,10.04,66.77-7.88,20.97-20.97,27.09-60.65,14.97-87.82,14.66-7.73,26.97-13.45,29.91-14.79,9.16,12.52,24.38,22.33,49.43,22.33,17.91,0,35.98-6.34,50.07-17,2.19-1.66,2.67-4.75,1.06-6.98ZM182.67,203.54c-5.7,5.7-12.73,8.77-19.78,8.77-6.6,0-12.33-2.99-17.1-7.76-16.21-16.21-14.84-56.08,6.07-76.99,5.93-5.93,13.09-9.33,20.38-9.33,6.59,0,12.32,2.94,17.07,7.69,15.3,15.3,16.15,54.83-6.65,77.62ZM414.39,212.18c-17.51,0-28.89-21.07-25.43-47.06,3.47-25.99,20.48-47.06,37.99-47.06,16.22,0,27.18,18.07,25.95,41.39-.45,3.39-.85,6.65-1.2,9.78-4.62,24.07-20.74,42.95-37.32,42.95ZM560.1,303.78c-22.89,22.89-52.1-6.31-18.02-40.4,7.74-7.74,20.41-16.22,33.59-23.96,7.54,18.63,1.61,47.18-15.58,64.36ZM651.98,128.01c17.21-17.21,36.29-12.12,36.29,4.55s-19.55,33.88-43.13,47.54c-2.28,1.32-5.03,2.78-7.72,4.16-.93-4.08-1.42-8.63-1.42-13.68,0-14,5.9-32.5,15.98-42.58Z"/>
</svg>